<?xml version="1.0" encoding="UTF-8" standalone="no"?><!DOCTYPE svg PUBLIC "-//W3C//DTD SVG 1.1//EN" "http://www.w3.org/Graphics/SVG/1.1/DTD/svg11.dtd"><svg width="100%" height="100%" viewBox="0 0 14830 14830" version="1.1" xmlns="http://www.w3.org/2000/svg" xmlns:xlink="http://www.w3.org/1999/xlink" xml:space="preserve" xmlns:serif="http://www.serif.com/" style="fill-rule:evenodd;clip-rule:evenodd;stroke-linejoin:round;stroke-miterlimit:2;"><path d="M4247.04,4.167c-138.355,22.35 -304.38,94.716 -421.442,184.116c-354.392,269.255 -628.971,840.759 -744.975,1552.74c-43.633,269.254 -73.433,642.813 -73.433,928.038c-0,336.304 39.379,766.25 95.783,1063.18c12.771,65.987 19.158,124.529 13.837,128.783c-4.258,4.254 -56.408,46.821 -114.941,93.646c-200.079,159.633 -428.896,405.487 -586.404,630.05c-302.25,428.891 -498.071,916.321 -580.017,1444.18c-31.929,208.596 -40.442,630.038 -14.9,838.629c56.404,481.042 201.142,887.588 449.112,1260.09l80.884,120.262l-23.413,39.375c-166.025,278.834 -307.571,682.188 -373.554,1069.57c-52.146,306.508 -58.533,388.454 -58.533,799.25c-0,414.013 5.321,495.954 54.279,782.242c58.533,342.691 177.729,705.587 310.758,947.187c43.638,78.75 150.063,242.638 162.834,251.163c4.258,2.116 -8.513,41.491 -28.734,87.258c-153.254,335.242 -284.158,781.163 -338.437,1156.85c-38.313,257.538 -43.634,340.559 -43.634,611.946c0,345.867 19.159,514.029 91.53,789.671l10.641,40.433l912.067,0l-29.8,-56.404c-184.117,-340.558 -201.146,-972.729 -42.571,-1603.82c72.371,-291.616 154.317,-505.521 307.571,-800.329l91.525,-178.787l-0,-109.617c-0,-102.171 -2.129,-113.871 -35.121,-180.921c-25.542,-51.092 -59.6,-94.721 -120.262,-154.321c-103.234,-100.037 -177.729,-205.4 -237.33,-335.246c-261.804,-568.312 -312.887,-1412.25 -128.77,-2131.7c76.625,-300.12 203.27,-567.237 336.3,-713.037c90.462,-100.054 137.291,-211.788 137.291,-327.796c0,-120.258 -42.571,-219.237 -138.354,-322.467c-274.579,-293.729 -443.792,-651.333 -504.458,-1067.44c-86.204,-592.796 70.241,-1238.81 425.704,-1750.7c348.012,-502.342 836.5,-824.809 1382.47,-911.004c122.379,-20.23 351.2,-17.034 478.908,6.387c139.425,24.479 226.683,17.013 316.092,-25.554c110.679,-52.138 166.025,-117.067 230.937,-266.063c57.467,-133.02 102.171,-205.395 222.43,-355.45c144.741,-179.862 284.149,-302.258 507.641,-450.191c255.434,-167.084 545.971,-288.4 835.45,-346.942c105.346,-21.287 154.304,-24.479 351.2,-24.479c196.892,-0 245.85,3.192 351.196,24.479c424.638,86.213 846.096,305.45 1182.4,616.196c72.362,67.05 245.833,282.033 301.183,371.442c21.284,35.104 58.542,109.616 81.942,164.945c64.912,148.996 120.262,213.925 230.937,266.063c86.217,41.508 176.667,50.033 310.763,27.671c211.792,-36.179 374.621,-32.984 582.154,9.583c706.667,142.604 1321.8,724.758 1594.25,1504.86c237.325,684.304 170.279,1400.55 -183.054,1947.57c-59.604,92.605 -119.204,167.1 -205.4,258.625c-186.25,199.013 -186.25,445.921 -1.058,650.263c304.375,333.108 494.875,1152.59 437.396,1875.21c-38.3,476.788 -160.696,903.559 -328.855,1145.14c-29.791,42.571 -91.512,114.933 -138.354,159.637c-60.658,59.6 -94.704,103.229 -120.258,154.321c-32.988,67.05 -35.121,78.75 -35.121,180.921l0,109.617l91.525,178.787c153.267,294.808 235.208,508.713 307.571,800.329c156.458,622.588 142.621,1241.98 -36.179,1594.25c-14.896,29.792 -27.675,57.463 -27.675,60.659c-0,3.196 203.283,5.312 452.308,5.312l451.25,0l11.704,-45.762c6.388,-24.463 17.029,-61.721 22.342,-83.004c11.721,-46.825 35.121,-185.175 54.287,-318.213c18.092,-134.096 18.092,-627.917 0,-776.908c-68.108,-540.642 -181.995,-969.534 -368.229,-1375.02c-20.225,-45.767 -33.004,-85.142 -28.75,-87.258c5.329,-3.196 35.121,-45.763 67.05,-93.663c232.013,-351.2 374.617,-792.866 446.996,-1376.08c19.15,-160.708 19.15,-851.404 0,-1005.73c-51.092,-398.021 -112.812,-668.35 -214.983,-941.854c-42.567,-113.875 -155.379,-354.396 -203.263,-432.084l-23.421,-39.375l80.888,-120.262c247.967,-372.5 392.708,-779.046 449.112,-1260.09c25.538,-208.591 17.034,-630.033 -14.895,-838.629c-83.021,-528.937 -277.78,-1014.23 -580.017,-1444.18c-157.517,-224.567 -386.338,-470.417 -586.408,-630.05c-58.542,-46.825 -110.692,-89.392 -114.946,-93.646c-5.313,-4.254 1.075,-62.796 13.837,-128.787c128.784,-671.542 124.513,-1509.1 -10.641,-2163.62c-117.067,-570.438 -329.917,-1023.81 -604.5,-1285.62c-219.234,-208.596 -442.725,-297.992 -710.917,-280.962c-615.142,36.183 -1111.08,743.912 -1306.91,1859.25c-31.925,179.863 -59.583,390.592 -59.583,448.059c0,22.341 -4.271,40.433 -9.583,40.433c-5.329,0 -46.821,-21.287 -91.525,-47.883c-474.654,-280.971 -1002.54,-431.025 -1516.56,-431.025c-514.029,-0 -1041.91,150.054 -1516.56,431.025c-44.709,26.596 -86.2,47.883 -91.529,47.883c-5.313,0 -9.584,-18.092 -9.584,-40.433c0,-59.604 -28.733,-276.704 -59.583,-448.059c-177.742,-1001.46 -585.346,-1664.49 -1127.05,-1831.58c-74.496,-22.35 -286.283,-37.25 -361.858,-25.541l0.004,-0Zm180.937,866.3c153.25,121.325 323.525,468.27 421.442,856.725c18.091,70.237 37.241,151.125 42.571,180.916c4.254,28.75 15.954,93.663 25.537,143.679c41.513,225.625 60.658,469.342 62.796,766.267l1.058,292.675l-73.437,108.542l-73.421,109.616l-171.354,0c-200.067,0 -399.096,25.559 -589.6,76.634c-68.109,17.029 -134.096,34.062 -146.859,37.258c-20.225,4.25 -23.42,-2.137 -35.12,-89.412c-62.796,-473.592 -59.6,-998.263 9.583,-1434.62c76.617,-486.354 255.417,-926.958 429.95,-1056.8c41.508,-30.862 48.958,-29.8 96.854,8.513Zm6068.38,-7.45c105.363,77.691 221.371,284.158 307.567,548.091c173.475,527.867 222.433,1252.62 130.904,1942.26c-11.7,87.275 -14.896,93.662 -35.121,89.412c-12.762,-3.196 -78.75,-20.229 -146.858,-37.258c-190.504,-51.075 -389.529,-76.634 -589.6,-76.634l-171.354,0l-73.421,-109.616l-73.438,-108.542l1.059,-292.675c2.137,-412.933 40.454,-735.4 131.962,-1094.05c96.858,-385.263 268.196,-732.208 420.383,-853.533c47.9,-38.313 55.346,-39.375 97.917,-7.45Z" style="fill:#dfdfdf;fill-rule:nonzero;"/><path d="M7248.25,6219.38c-230.954,22.363 -293.733,30.871 -404.429,53.229c-179.859,37.242 -420.379,120.263 -587.463,202.204c-581.075,284.15 -981.233,757.746 -1103.63,1305.83c-24.479,108.558 -27.675,144.741 -27.675,327.796c0,180.92 3.196,220.295 26.617,323.525c162.829,716.25 822.654,1245.19 1676.2,1342.03c185.175,20.229 985.504,20.229 1170.68,-0c685.383,-77.688 1274.98,-449.113 1539.98,-970.604c70.225,-139.413 104.288,-229.88 136.213,-371.425c23.42,-103.23 26.616,-142.605 26.616,-323.526c0,-183.054 -3.196,-219.233 -27.675,-327.795c-177.741,-796.059 -950.383,-1422.9 -1897.57,-1542.1c-123.459,-14.896 -446.984,-27.671 -527.867,-19.167Zm398.021,578.958c316.092,34.063 634.304,146.875 889.721,317.155c137.291,91.529 330.991,283.091 413.995,408.679c102.171,155.366 160.692,313.941 187.309,506.579c11.7,88.333 5.329,155.383 -26.617,297.987c-50.016,212.846 -205.4,435.28 -415.05,590.659c-97.916,71.304 -301.183,174.55 -425.696,214.983c-236.266,75.558 -390.591,89.392 -941.875,85.142c-359.704,-3.196 -423.575,-6.392 -526.804,-25.542c-352.258,-65.987 -631.096,-206.475 -833.3,-420.379c-163.904,-172.417 -238.404,-329.913 -278.837,-584.271c-18.088,-118.142 15.954,-313.958 85.141,-478.925c84.08,-201.146 301.18,-451.233 516.163,-594.912c249.025,-166.025 576.821,-284.15 878.004,-316.075c116.004,-12.78 361.837,-12.78 477.846,-1.08Z" style="fill:#dfdfdf;fill-rule:nonzero;"/><path d="M7006.67,7575.29c-80.884,43.629 -137.292,154.304 -120.263,236.25c19.15,88.333 96.842,177.741 218.163,251.179c64.929,39.375 69.183,44.687 72.379,84.062c2.116,23.421 -6.392,90.471 -18.092,150.071c-12.779,58.525 -22.362,120.258 -22.362,137.292c1.079,45.762 43.645,120.258 88.333,156.442c39.396,31.924 46.842,32.983 157.521,36.179c101.108,3.195 122.396,1.058 162.829,-18.092c104.304,-51.092 130.9,-144.737 92.587,-324.6c-31.929,-150.05 -25.541,-173.471 54.288,-219.237c84.063,-48.959 173.471,-135.155 200.067,-193.696c51.095,-111.738 4.254,-238.388 -108.559,-296.929c-27.654,-13.834 -61.716,-20.209 -111.733,-20.209c-77.692,0 -127.708,18.092 -219.238,76.617l-52.154,33.004l-32.983,-20.225c-135.158,-79.829 -159.637,-89.396 -241.6,-88.333c-58.525,-0 -90.45,5.312 -119.183,20.225Z" style="fill:#dfdfdf;fill-rule:nonzero;"/><path d="M4422.62,6339.67c-188.367,59.6 -328.854,197.95 -401.212,394.841c-35.125,93.667 -52.155,241.6 -37.259,321.409c35.121,190.504 191.563,363.975 369.304,411.875c223.492,58.525 390.575,20.208 538.509,-126.65c86.2,-84.08 133.037,-157.517 179.862,-276.717c34.046,-84.063 36.179,-98.958 36.179,-218.163l1.059,-127.708l-44.688,-91.525c-71.316,-144.742 -200.087,-252.242 -349.079,-291.617c-84.079,-21.283 -219.237,-20.208 -292.675,4.255Z" style="fill:#dfdfdf;fill-rule:nonzero;"/><path d="M10106.8,6336.5c-145.8,39.375 -275.646,147.917 -344.829,290.538l-44.687,91.529l1.058,127.708c-0,119.2 2.137,134.096 36.183,218.158c46.838,119.204 93.663,192.642 179.859,276.721c147.933,146.859 315.016,185.175 538.525,126.65c128.766,-34.062 257.537,-142.621 319.27,-269.271c53.213,-107.483 65.975,-185.175 48.959,-307.57c-39.375,-279.896 -203.279,-483.159 -446.996,-554.463c-71.304,-21.283 -209.654,-21.283 -287.346,0l0.004,-0Z" style="fill:#dfdfdf;fill-rule:nonzero;"/></svg>